<svg xmlns="http://www.w3.org/2000/svg" xmlns:xlink="http://www.w3.org/1999/xlink" width="302" zoomAndPan="magnify" viewBox="0 0 226.5 226.499992" height="302" preserveAspectRatio="xMidYMid meet" version="1.2"><defs><clipPath id="f03be0ae46"><path d="M 14 0 L 212 0 L 212 225.730469 L 14 225.730469 Z M 14 0 "/></clipPath></defs><g id="ec103929c1"><g clip-rule="nonzero" clip-path="url(#f03be0ae46)"><path style=" stroke:none;fill-rule:nonzero;fill:#1e3f48;fill-opacity:1;" d="M 210.835938 159.734375 C 210.347656 151.144531 210.054688 142.539062 209.449219 133.953125 C 208.695312 123.242188 207.480469 112.566406 207.671875 101.796875 C 207.757812 97.023438 207.660156 92.210938 206.453125 87.53125 C 205.707031 84.636719 204.261719 83.925781 201.375 84.886719 C 200.214844 85.273438 199.113281 85.964844 197.933594 86.117188 C 192.742188 86.796875 187.550781 87.503906 182.292969 87.40625 C 179.839844 87.363281 179.933594 87.394531 180.015625 84.957031 C 180.441406 72.542969 180.859375 60.128906 181.175781 47.710938 C 181.273438 43.910156 179.453125 42.542969 175.882812 43.890625 C 171.765625 45.445312 167.582031 44.980469 163.410156 44.839844 C 161.050781 44.761719 158.671875 44.316406 156.449219 43.347656 C 155.289062 42.839844 154.65625 42.382812 156.070312 41.339844 C 156.875 40.738281 157.296875 39.820312 156.8125 38.757812 C 156.335938 37.707031 155.445312 37.523438 154.394531 37.5625 C 153.363281 37.597656 152.335938 37.558594 151.347656 37.964844 C 150.714844 32.53125 150.945312 27.179688 151.195312 21.828125 C 151.402344 17.441406 152.164062 13.089844 151.949219 8.675781 C 151.820312 6.011719 149.167969 3.746094 147.039062 4.769531 C 145.308594 5.597656 143.480469 5.90625 141.675781 6.277344 C 138.554688 6.914062 135.652344 6.039062 132.953125 4.457031 C 132.5 4.191406 131.851562 3.859375 132.507812 3.128906 C 133.570312 1.941406 132.714844 1.230469 131.777344 0.6875 C 130.589844 0 129.285156 0.0546875 128.042969 0.542969 C 125.460938 1.5625 122.753906 2.375 120.367188 3.738281 C 111.941406 8.539062 102.917969 12.109375 94.328125 16.558594 C 91.753906 17.894531 89.160156 19.203125 86.433594 20.226562 C 78.539062 23.183594 71.460938 27.785156 63.902344 31.429688 C 62.253906 32.226562 60.207031 33.292969 59.902344 35.167969 C 59.503906 37.644531 57.894531 38.382812 56.058594 39.210938 C 44.128906 44.601562 32.207031 50.023438 20.261719 55.386719 C 18.851562 56.019531 17.882812 56.984375 17.363281 58.339844 C 15.539062 63.105469 15.03125 68.09375 15.054688 73.160156 C 15.070312 76.71875 15.113281 80.28125 15.046875 83.839844 C 14.914062 90.960938 14.601562 98.078125 14.570312 105.195312 C 14.539062 113.46875 15.003906 121.753906 14.761719 130.019531 C 14.332031 144.457031 14.789062 158.902344 14.1875 173.339844 C 14.089844 175.648438 14.738281 177.984375 14.660156 180.296875 C 14.386719 188.445312 14.457031 196.59375 14.410156 204.746094 C 14.382812 209.46875 18.308594 212.460938 21.335938 213.242188 C 22.964844 213.664062 24.546875 214.164062 26.109375 214.757812 C 34.21875 217.847656 42.128906 217.421875 49.933594 213.589844 C 54.644531 211.277344 59.042969 208.425781 63.675781 205.984375 C 64.5625 205.519531 65.171875 205.164062 65.175781 206.679688 C 65.175781 208.160156 65.542969 209.648438 65.464844 211.121094 C 65.367188 213.003906 66.203125 214.175781 67.71875 215.066406 C 70.773438 216.875 74.132812 217.800781 77.589844 218.339844 C 80.183594 218.742188 82.582031 218.144531 84.6875 216.460938 C 86.503906 215.007812 88.402344 213.65625 90.363281 212.1875 C 90.882812 214.957031 93.074219 215.847656 95.3125 216.609375 C 96.898438 217.152344 98.535156 217.53125 100.152344 217.984375 C 104.105469 219.097656 108.234375 218.835938 112.253906 219.507812 C 116.765625 220.257812 120.996094 219.625 124.324219 215.953125 C 125.308594 214.867188 126.667969 214.128906 127.792969 213.164062 C 128.808594 212.296875 129.230469 212.621094 129.339844 213.796875 C 129.613281 216.789062 131.472656 218.378906 134.046875 219.636719 C 140.039062 222.558594 146.585938 223.5625 152.910156 225.320312 C 154.386719 225.734375 155.9375 225.386719 157.277344 224.765625 C 159.4375 223.765625 161.5 222.535156 163.582031 221.367188 C 171.261719 217.066406 177.660156 211.011719 184.519531 205.632812 C 192.105469 199.6875 199.835938 193.886719 207.019531 187.4375 C 209.949219 184.808594 211.933594 181.746094 211.921875 177.554688 C 211.90625 171.585938 211.171875 165.675781 210.835938 159.734375 Z M 29.261719 120.4375 C 29.207031 120.445312 29.148438 120.453125 29.089844 120.460938 C 29.148438 120.453125 29.207031 120.445312 29.261719 120.4375 Z M 29.261719 120.4375 "/></g><path style=" stroke:none;fill-rule:nonzero;fill:#e28b7a;fill-opacity:1;" d="M 146.867188 129.371094 C 146.757812 141.996094 147.648438 154.570312 148.679688 167.144531 C 149.195312 173.453125 149.503906 179.785156 150.375 186.058594 C 151.707031 195.644531 152.828125 205.261719 154.507812 214.800781 C 154.929688 217.210938 155.089844 219.671875 155.359375 222.109375 C 155.492188 223.3125 155.085938 224.117188 153.734375 223.710938 C 147.382812 221.8125 140.738281 220.875 134.722656 217.855469 C 132.789062 216.882812 131.707031 215.582031 131.238281 213.378906 C 129.519531 205.28125 128.675781 197.0625 127.441406 188.898438 C 126.386719 181.945312 125.347656 174.984375 124.46875 168.007812 C 123.671875 161.664062 122.941406 155.304688 122.46875 148.929688 C 121.679688 138.296875 120.484375 127.683594 120.753906 116.984375 C 120.800781 115.003906 121.371094 113.605469 122.941406 112.347656 C 127.054688 109.054688 131.453125 106.242188 136.285156 104.171875 C 139.625 102.742188 142.644531 100.726562 145.886719 99.140625 C 155.15625 94.601562 164.488281 90.191406 173.789062 85.71875 C 174.269531 85.488281 174.8125 85.140625 175.1875 85.652344 C 175.675781 86.316406 174.980469 86.707031 174.566406 87.050781 C 173.820312 87.667969 173.058594 88.285156 172.226562 88.773438 C 168.382812 91.03125 164.632812 93.492188 160.625 95.417969 C 154.226562 98.492188 148.003906 101.9375 141.441406 104.675781 C 136.898438 106.570312 132.820312 109.363281 128.390625 111.488281 C 127.875 111.738281 127.410156 112.125 126.988281 112.523438 C 125.84375 113.597656 126.007812 114.585938 127.492188 115.152344 C 128.324219 115.46875 129.25 115.714844 130.128906 115.703125 C 135.3125 115.628906 140.496094 116.1875 145.675781 115.777344 C 146.878906 115.679688 146.878906 116.273438 146.875 117.128906 C 146.855469 121.210938 146.867188 125.292969 146.867188 129.371094 Z M 143.667969 209.738281 C 145.832031 209.824219 146.292969 209.242188 145.976562 207.246094 C 145.453125 203.941406 144.964844 200.625 144.582031 197.300781 C 143.609375 188.78125 142.074219 180.328125 141.691406 171.734375 C 141.25 161.921875 139.789062 152.167969 139.835938 142.316406 C 139.847656 139.277344 139.636719 136.234375 139.464844 133.199219 C 139.316406 130.457031 138.929688 130.101562 136.175781 130.125 C 133.449219 130.148438 130.707031 130.269531 128.066406 129.523438 C 126.5625 129.101562 126.214844 129.609375 126.222656 130.976562 C 126.246094 136.28125 126.746094 141.574219 127.164062 146.84375 C 128.050781 158.082031 130.296875 169.164062 131.414062 180.398438 C 132.289062 189.164062 133.910156 197.859375 135.199219 206.585938 C 135.359375 207.683594 135.785156 208.355469 137.03125 208.71875 C 139.242188 209.363281 141.511719 209.335938 143.667969 209.738281 Z M 135.613281 126.003906 C 136.324219 126.003906 137.046875 126.085938 137.742188 125.984375 C 138.492188 125.871094 139.71875 126.222656 139.707031 124.992188 C 139.695312 123.855469 138.585938 123.949219 137.753906 123.972656 C 134.757812 124.050781 131.839844 123.660156 128.96875 122.789062 C 127.929688 122.476562 126.832031 122.316406 125.746094 122.203125 C 125.34375 122.160156 124.824219 122.339844 124.726562 122.910156 C 124.628906 123.464844 124.902344 123.773438 125.433594 123.859375 C 128.855469 124.402344 132.03125 126.164062 135.613281 126.003906 Z M 147.402344 216.179688 C 148.25 215.875 149.546875 216.539062 149.578125 215.105469 C 149.605469 213.875 148.460938 214.210938 147.675781 214.066406 C 143.960938 213.371094 140.191406 212.945312 136.558594 211.835938 C 135.921875 211.644531 134.976562 211.203125 134.640625 211.980469 C 134.246094 212.886719 135.328125 213.074219 135.90625 213.324219 C 139.59375 214.921875 143.601562 215.222656 147.402344 216.179688 Z M 135.03125 102.679688 C 144.457031 97.726562 154.078125 93.175781 163.691406 88.601562 C 166.601562 87.214844 169.417969 85.648438 172.457031 84.523438 C 174.824219 83.648438 176.265625 84.113281 176.871094 86.296875 C 177.046875 86.933594 177.371094 86.9375 177.816406 86.964844 C 178.417969 87.003906 178.355469 86.558594 178.394531 86.183594 C 178.507812 85.03125 178.71875 83.875 178.722656 82.722656 C 178.753906 74.441406 178.769531 66.15625 179.171875 57.882812 C 179.347656 54.332031 179.640625 50.789062 179.5 47.230469 C 179.421875 45.171875 178.9375 44.804688 177.074219 45.441406 C 174.816406 46.210938 172.59375 47.0625 170.453125 48.136719 C 159.261719 53.75 147.800781 58.789062 136.417969 63.996094 C 133.371094 65.390625 133.339844 65.28125 133.605469 68.519531 C 133.679688 69.417969 133.6875 70.332031 133.628906 71.234375 C 133.128906 78.992188 133.433594 86.769531 133.148438 94.527344 C 133.042969 97.4375 133.210938 100.292969 133.328125 103.167969 C 134.054688 103.324219 134.542969 102.933594 135.03125 102.679688 Z M 135.03125 102.679688 "/><path style=" stroke:none;fill-rule:nonzero;fill:#767fa5;fill-opacity:1;" d="M 155.339844 39.402344 C 154.066406 41.042969 152.472656 42.257812 150.632812 42.988281 C 141.773438 46.492188 133.109375 50.457031 124.144531 53.75 C 114.425781 57.316406 104.570312 60.714844 95.523438 65.914062 C 95.019531 66.203125 94.472656 66.46875 94.070312 66.867188 C 93.09375 67.835938 92.890625 68.730469 94.226562 69.710938 C 95.898438 70.9375 97.867188 71.023438 99.738281 71.296875 C 104.273438 71.96875 108.84375 72.40625 113.398438 72.9375 C 113.460938 72.945312 113.53125 72.929688 113.59375 72.949219 C 114.652344 73.246094 116.132812 72.136719 116.628906 72.957031 C 117.179688 73.871094 116.824219 75.335938 116.839844 76.5625 C 117.003906 89.964844 116.988281 103.367188 117.363281 116.761719 C 117.824219 133.144531 117.296875 149.53125 117.730469 165.910156 C 117.914062 172.878906 118.625 179.832031 119.09375 186.792969 C 119.128906 187.308594 119.164062 187.828125 119.164062 188.34375 C 119.160156 197.46875 119.210938 206.597656 118.957031 215.722656 C 118.910156 217.316406 118.34375 217.792969 116.855469 217.929688 C 114.089844 218.179688 111.464844 217.335938 108.761719 217.140625 C 104.632812 216.84375 100.582031 216.195312 96.609375 214.933594 C 93.023438 213.792969 92.082031 212.777344 92.058594 209.058594 C 91.992188 196.753906 92 184.449219 91.84375 172.144531 C 91.71875 162.4375 91.75 152.722656 91.195312 143.027344 C 90.613281 132.878906 90.738281 122.710938 90.335938 112.566406 C 89.789062 98.65625 89.414062 84.753906 89.195312 70.835938 C 89.140625 67.5625 90.324219 65.640625 93.195312 64.347656 C 101.191406 60.75 109.203125 57.226562 117.386719 54.027344 C 127.355469 50.125 137.128906 45.703125 147.070312 41.699219 C 149.21875 40.835938 151.40625 40.066406 153.570312 39.242188 C 154.136719 39.027344 154.671875 38.96875 155.339844 39.402344 Z M 104.847656 81.476562 C 102.585938 81.167969 100.351562 81.789062 98.457031 83.5 C 95.007812 86.605469 93.859375 94.691406 96.316406 98.671875 C 96.832031 99.503906 97.527344 100.171875 98.355469 100.71875 C 103.722656 104.234375 111.09375 101.21875 112.59375 94.894531 C 113.015625 93.113281 113.171875 91.300781 112.980469 89.5 C 112.511719 85.078125 110.957031 80.71875 104.847656 81.476562 Z M 105.214844 198.96875 C 107.128906 198.734375 109.175781 198.480469 111.222656 198.234375 C 112.074219 198.132812 113.140625 198.054688 112.953125 196.917969 C 112.75 195.671875 111.628906 196.226562 110.886719 196.332031 C 106.835938 196.914062 102.796875 196.980469 98.757812 196.238281 C 98.199219 196.136719 97.371094 195.230469 97.050781 196.5 C 96.796875 197.511719 97.601562 197.875 98.355469 198.101562 C 100.539062 198.757812 102.832031 198.585938 105.214844 198.96875 Z M 100.699219 203.941406 C 100.582031 203.941406 100.386719 203.925781 100.195312 203.941406 C 99.578125 203.992188 98.742188 203.816406 98.679688 204.71875 C 98.609375 205.636719 99.492188 205.601562 100.082031 205.695312 C 101.609375 205.949219 103.144531 206.132812 104.679688 206.316406 C 105.945312 206.464844 107.199219 206.914062 108.503906 206.410156 C 109 206.214844 109.554688 206.15625 109.46875 205.453125 C 109.398438 204.894531 108.953125 204.804688 108.46875 204.757812 C 105.90625 204.5 103.339844 204.21875 100.699219 203.941406 Z M 119.5 113.570312 C 120.070312 112.300781 121.074219 111.464844 122.09375 110.597656 C 124.625 108.441406 127.53125 106.871094 130.328125 105.136719 C 131.332031 104.515625 131.804688 103.84375 131.640625 102.652344 C 130.902344 97.242188 131.339844 91.804688 131.335938 86.378906 C 131.332031 80.234375 131.542969 74.085938 131.695312 67.941406 C 131.730469 66.457031 131.355469 66.261719 129.960938 66.898438 C 126.5625 68.453125 123.453125 70.664062 119.824219 71.652344 C 118.261719 72.078125 118.023438 72.789062 118.09375 74.21875 C 118.40625 80.671875 118.703125 87.128906 118.820312 93.589844 C 118.941406 100.21875 118.847656 106.847656 118.847656 113.476562 C 119.066406 113.507812 119.28125 113.539062 119.5 113.570312 Z M 128.023438 210.691406 C 128.550781 210.296875 128.578125 209.882812 128.476562 209.355469 C 127.289062 203.140625 126.644531 196.84375 125.652344 190.601562 C 124 180.203125 122.617188 169.777344 121.585938 159.304688 C 120.753906 150.851562 120.058594 142.382812 119.308594 133.992188 C 119.320312 147.886719 119.113281 161.855469 120.324219 175.8125 C 121.175781 185.679688 121.019531 195.609375 121.070312 205.507812 C 121.085938 208.917969 120.941406 212.355469 120.847656 216.199219 C 123.433594 214.203125 125.703125 212.414062 128.023438 210.691406 Z M 128.023438 210.691406 "/><path style=" stroke:none;fill-rule:nonzero;fill:#d8a772;fill-opacity:1;" d="M 148.421875 124.082031 C 148.421875 121.621094 148.464844 119.15625 148.398438 116.699219 C 148.378906 115.882812 148.558594 115.445312 149.339844 115.078125 C 158.222656 110.890625 166.855469 106.242188 175.296875 101.214844 C 182.84375 96.71875 190.5 92.410156 198.121094 88.039062 C 199.523438 87.230469 201.03125 86.636719 202.605469 86.257812 C 203.601562 86.019531 204.277344 86.222656 204.5625 87.457031 C 205.347656 90.882812 205.582031 94.347656 205.652344 97.839844 C 205.789062 104.378906 205.773438 110.925781 206.132812 117.453125 C 206.578125 125.515625 207.382812 133.558594 207.964844 141.613281 C 208.671875 151.414062 208.710938 161.25 209.800781 171.03125 C 210.101562 173.722656 210.175781 176.5 209.855469 179.179688 C 209.523438 181.929688 207.816406 184.101562 205.726562 185.960938 C 198.609375 192.292969 190.941406 197.957031 183.5 203.882812 C 176.074219 209.796875 169.0625 216.308594 160.730469 221.054688 C 157.152344 223.09375 157.367188 223.15625 156.953125 219.007812 C 156.445312 213.9375 155.582031 208.90625 154.886719 203.855469 C 153.683594 195.089844 152.257812 186.351562 151.550781 177.527344 C 150.621094 165.929688 149.613281 154.335938 148.976562 142.71875 C 148.636719 136.523438 148.296875 130.300781 148.421875 124.082031 Z M 182.289062 161.203125 C 181.414062 160.597656 180.464844 160.640625 179.515625 160.9375 C 179.152344 161.054688 178.839844 161.355469 178.828125 161.792969 C 178.820312 162.0625 178.960938 162.308594 179.265625 162.332031 C 182.042969 162.558594 179.828125 163.976562 179.769531 164.777344 C 179.730469 165.355469 179.128906 165.984375 178.359375 165.804688 C 177.675781 165.648438 177.335938 165.023438 177.261719 164.351562 C 177.0625 162.535156 177.808594 160.949219 178.722656 159.476562 C 178.960938 159.089844 179.996094 158.996094 179.421875 158.316406 C 178.851562 157.640625 178.054688 158.039062 177.621094 158.667969 C 176.480469 160.339844 175.683594 162.199219 175.804688 164.238281 C 175.890625 165.707031 176.589844 167.117188 178.269531 167.277344 C 179.777344 167.425781 180.800781 166.429688 181.320312 165.0625 C 181.796875 163.808594 182.335938 162.554688 182.257812 161.164062 C 182.699219 161.917969 183.023438 162.777344 183.601562 163.398438 C 184.390625 164.242188 185.585938 164.917969 186.261719 163.445312 C 187.324219 161.140625 187.636719 158.632812 187.125 156.097656 C 187.03125 155.628906 186.828125 154.988281 186.136719 155.164062 C 185.554688 155.308594 185.734375 155.898438 185.746094 156.320312 C 185.804688 158.476562 185.988281 160.636719 185.191406 162.652344 C 184.71875 162.707031 184.585938 162.464844 184.46875 162.246094 C 183.765625 160.90625 183.71875 159.40625 183.46875 157.957031 C 183.386719 157.460938 183.207031 157.003906 182.6875 157.046875 C 182.078125 157.101562 182.175781 157.660156 182.191406 158.113281 C 182.234375 159.144531 182.257812 160.171875 182.289062 161.203125 Z M 160.101562 179.769531 C 159.839844 180.089844 159.601562 180.253906 159.550781 180.464844 C 158.953125 182.980469 159.171875 185.417969 160.976562 187.359375 C 162.714844 189.226562 164.964844 190.222656 167.601562 189.894531 C 171.269531 189.4375 173.261719 186.972656 174.410156 183.773438 C 174.882812 182.449219 175.300781 182.355469 176.652344 182.636719 C 182.617188 183.875 185.957031 182.519531 186.832031 177.269531 C 187.15625 175.316406 187.816406 175.128906 189.492188 175.164062 C 194.414062 175.277344 197.753906 172.074219 197.773438 167.308594 C 197.777344 166.417969 198.136719 166.429688 198.757812 166.320312 C 201.910156 165.765625 203.046875 164.648438 203.636719 161.65625 C 203.757812 161.042969 203.785156 160.386719 203.140625 160.144531 C 202.503906 159.90625 202.289062 160.535156 202.070312 161 C 201.90625 161.347656 201.730469 161.699219 201.621094 162.066406 C 201.011719 164.101562 199.464844 164.757812 197.578125 164.539062 C 195.851562 164.335938 195.515625 164.960938 195.855469 166.492188 C 196.433594 169.078125 195.464844 171.035156 193.226562 172.390625 C 191.3125 173.546875 189.285156 173.472656 187.234375 172.839844 C 184.96875 172.140625 184.789062 172.289062 185.140625 174.632812 C 185.554688 177.390625 184.160156 180.527344 182.050781 180.871094 C 179.71875 181.257812 177.273438 181.503906 175.257812 179.617188 C 174.25 178.675781 173.511719 178.941406 173.273438 180.347656 C 173.003906 181.941406 172.660156 183.503906 171.8125 184.925781 C 170.246094 187.566406 167.828125 188.679688 165.125 187.957031 C 162.085938 187.144531 160.535156 185.09375 160.492188 181.875 C 160.484375 181.253906 160.679688 180.589844 160.101562 179.769531 Z M 155.675781 127.246094 C 155.855469 125.511719 155.839844 124.097656 156.542969 122.808594 C 158.003906 120.121094 160.78125 119.546875 162.761719 121.503906 C 163.375 122.113281 163.46875 123.53125 164.535156 123.304688 C 165.785156 123.039062 165.203125 121.644531 165.390625 120.789062 C 166.578125 115.445312 169.664062 114 174.285156 116.734375 C 175.160156 117.25 175.882812 117.339844 176.117188 116.0625 C 176.207031 115.554688 176.324219 115.050781 176.46875 114.554688 C 177.625 110.539062 181.910156 108.839844 185.140625 111.109375 C 188.335938 113.355469 188.335938 113.355469 188.941406 109.4375 C 189.449219 106.140625 192.148438 104.15625 194.554688 105.375 C 195.230469 105.714844 195.75 106.351562 196.355469 106.832031 C 196.855469 107.234375 197.40625 107.410156 197.878906 106.8125 C 198.300781 106.28125 197.941406 105.882812 197.570312 105.472656 C 194.789062 102.398438 190.882812 102.6875 188.511719 106.050781 C 187.625 107.3125 187.503906 108.804688 186.953125 110.164062 C 181.515625 107.132812 177.59375 108.285156 174.972656 113.753906 C 174.527344 114.683594 174.253906 114.480469 173.574219 114.199219 C 170.324219 112.855469 167.011719 113.9375 165.136719 116.878906 C 164.507812 117.863281 164.140625 118.953125 163.789062 120.050781 C 159.480469 118.503906 157.902344 118.734375 156.03125 121.164062 C 154.601562 123.027344 154.359375 125.394531 155.675781 127.246094 Z M 187.429688 129.496094 C 187.476562 127.617188 187.191406 125.074219 186.234375 122.640625 C 185.871094 121.71875 185.257812 121.191406 184.199219 121.144531 C 183.003906 121.09375 182.605469 121.925781 182.347656 122.78125 C 181.679688 125 181.257812 127.28125 181.136719 129.601562 C 181.019531 131.804688 181.089844 134.015625 182.453125 135.902344 C 183.09375 136.785156 183.816406 137.738281 185.125 137.472656 C 186.324219 137.226562 186.625 136.167969 186.964844 135.1875 C 187.527344 133.566406 187.4375 131.882812 187.429688 129.496094 Z M 188.90625 124.027344 C 188.824219 127.0625 189.214844 130.058594 189.652344 133.050781 C 189.714844 133.488281 189.667969 134.054688 190.324219 133.996094 C 190.964844 133.941406 190.867188 133.367188 190.855469 132.941406 C 190.820312 131.71875 190.769531 130.496094 190.679688 129.273438 C 190.621094 128.488281 190.0625 127.390625 190.875 127.035156 C 191.871094 126.597656 192.621094 127.550781 193.183594 128.375 C 193.4375 128.746094 193.605469 129.183594 193.882812 129.53125 C 194.523438 130.328125 194.507812 132.429688 195.878906 131.671875 C 197.230469 130.925781 195.78125 129.503906 195.269531 128.511719 C 194.058594 126.183594 193.769531 124.804688 194.261719 122.207031 C 194.296875 122.019531 194.328125 121.824219 194.332031 121.632812 C 194.382812 119.742188 193.117188 118.105469 191.554688 118.03125 C 189.882812 117.953125 188.992188 119.035156 188.910156 121.316406 C 188.878906 122.21875 188.90625 123.125 188.90625 124.027344 Z M 172.015625 138.796875 C 172.273438 139.582031 172.503906 140.378906 172.789062 141.15625 C 173.019531 141.78125 173.070312 142.761719 174.066406 142.488281 C 174.921875 142.253906 174.589844 141.347656 174.460938 140.824219 C 173.632812 137.511719 172.617188 134.257812 170.550781 131.464844 C 170 130.71875 169.449219 129.65625 168.308594 129.976562 C 167.082031 130.324219 167.171875 131.527344 167.082031 132.554688 C 166.777344 135.980469 167.46875 139.367188 167.515625 142.78125 C 167.53125 143.785156 166.8125 145.675781 168.210938 145.683594 C 169.46875 145.691406 169.136719 143.722656 168.988281 142.695312 C 168.628906 140.242188 169.804688 139.207031 172.015625 138.796875 Z M 175.175781 196.710938 C 175.574219 196.503906 175.933594 196.363281 176.242188 196.152344 C 181.425781 192.617188 186.617188 189.101562 191.769531 185.523438 C 193.042969 184.640625 194.195312 183.589844 195.375 182.578125 C 195.902344 182.128906 196.265625 181.523438 195.679688 180.90625 C 195.113281 180.316406 194.589844 180.839844 194.167969 181.207031 C 189.03125 185.6875 183.308594 189.351562 177.636719 193.085938 C 176.667969 193.722656 175.808594 194.523438 174.902344 195.253906 C 174.570312 195.523438 174.410156 195.894531 174.578125 196.28125 C 174.660156 196.464844 174.953125 196.554688 175.175781 196.710938 Z M 178.324219 137.574219 C 178.152344 137.613281 177.984375 137.648438 177.8125 137.6875 C 176.785156 134.855469 175.773438 132.023438 174.726562 129.203125 C 174.535156 128.695312 174.386719 127.945312 173.578125 128.203125 C 172.742188 128.46875 173.125 129.078125 173.273438 129.640625 C 174.074219 132.632812 175.105469 135.539062 176.429688 138.335938 C 176.867188 139.253906 177.390625 140.40625 178.644531 140.140625 C 179.910156 139.871094 179.90625 138.539062 179.921875 137.578125 C 179.976562 134.152344 180.175781 130.710938 179.722656 127.296875 C 179.605469 126.429688 180.074219 124.78125 178.894531 124.851562 C 177.402344 124.9375 178.019531 126.617188 178.050781 127.585938 C 178.152344 130.917969 178.566406 134.238281 178.324219 137.574219 Z M 155.484375 142.355469 C 154.71875 140.652344 155.230469 138.785156 154.953125 137.023438 C 154.917969 136.804688 157.074219 136.246094 158.214844 135.839844 C 158.335938 135.796875 158.4375 135.707031 158.5625 135.667969 C 159.113281 135.5 159.546875 135.21875 159.304688 134.570312 C 159.070312 133.953125 158.550781 133.941406 158.007812 134.144531 C 156.988281 134.53125 156 135.042969 154.949219 135.292969 C 153.667969 135.59375 153.429688 136.292969 153.441406 137.511719 C 153.488281 142.355469 154.199219 147.117188 155.007812 151.875 C 155.105469 152.433594 155.003906 153.1875 155.898438 153.019531 C 156.636719 152.878906 156.640625 152.183594 156.570312 151.605469 C 156.40625 150.269531 156.246094 148.925781 155.960938 147.609375 C 155.53125 145.597656 155.214844 143.703125 157.703125 142.734375 C 158.097656 142.578125 158.390625 142.15625 158.714844 141.839844 C 158.96875 141.589844 159.042969 141.261719 158.855469 140.960938 C 158.632812 140.601562 158.289062 140.738281 158.007812 140.898438 C 157.175781 141.363281 156.355469 141.851562 155.484375 142.355469 Z M 197.070312 117.597656 C 197.164062 116.914062 196.839844 116.070312 197.78125 115.777344 C 198.222656 115.636719 198.695312 115.722656 198.945312 116.214844 C 199.144531 116.609375 199.148438 117.40625 199.832031 116.972656 C 200.457031 116.582031 200.34375 115.824219 199.976562 115.242188 C 199.394531 114.328125 198.488281 114.011719 197.457031 114.191406 C 196.292969 114.398438 195.710938 115.199219 195.53125 116.324219 C 195.132812 118.820312 195.980469 120.90625 197.738281 122.628906 C 199.039062 123.898438 199.761719 125.414062 200.109375 127.167969 C 200.296875 128.113281 200.078125 128.78125 199.238281 129.296875 C 198.765625 129.589844 197.730469 129.742188 198.1875 130.519531 C 198.617188 131.261719 199.558594 131.003906 200.289062 130.679688 C 201.339844 130.210938 201.886719 129.40625 201.804688 128.230469 C 201.644531 125.9375 201.097656 123.8125 199.445312 122.0625 C 198.253906 120.808594 197.019531 119.519531 197.070312 117.597656 Z M 188.128906 155.738281 C 187.898438 156.816406 188.503906 157.976562 188.527344 159.199219 C 188.546875 160.132812 188.582031 161.722656 189.460938 161.570312 C 190.703125 161.351562 189.984375 159.882812 189.902344 158.929688 C 189.847656 158.265625 189.351562 157.355469 190.003906 157.019531 C 190.707031 156.660156 191.421875 157.382812 192.007812 157.890625 C 192.152344 158.019531 192.261719 158.1875 192.414062 158.304688 C 193.066406 158.789062 193.472656 160.347656 194.433594 159.476562 C 195.410156 158.589844 193.902344 157.910156 193.507812 157.132812 C 193.449219 157.023438 193.339844 156.921875 193.226562 156.871094 C 192.082031 156.375 192.285156 155.746094 192.847656 154.839844 C 193.613281 153.609375 193.226562 152.433594 192.054688 151.660156 C 190.960938 150.933594 189.261719 151.542969 188.554688 152.746094 C 188.027344 153.636719 188.132812 154.609375 188.128906 155.738281 Z M 174.890625 165.046875 C 174.929688 163.769531 175.015625 162.542969 174.304688 161.445312 C 173.519531 160.226562 171.71875 159.871094 170.878906 160.78125 C 169.207031 162.589844 168.832031 166.976562 170.171875 169.070312 C 171.277344 170.792969 173.117188 170.71875 174.136719 168.898438 C 174.816406 167.683594 175.011719 166.363281 174.890625 165.046875 Z M 180.242188 151.109375 C 180.132812 150.085938 180.15625 149.023438 179.878906 148.050781 C 179.566406 146.941406 179.089844 145.957031 177.53125 145.945312 C 176.046875 145.9375 175.402344 146.730469 175.023438 147.878906 C 174.660156 148.980469 174.628906 150.136719 174.832031 151.308594 C 175.1875 153.320312 176.574219 155.03125 177.929688 154.992188 C 179.359375 154.957031 180.199219 153.542969 180.242188 151.109375 Z M 165.824219 164.265625 C 164.875 163.945312 164.464844 163.214844 163.820312 162.824219 C 163.226562 162.464844 163.050781 161.058594 162.132812 161.78125 C 161.726562 162.105469 162.46875 163.105469 162.796875 163.757812 C 162.851562 163.871094 162.925781 164 163.027344 164.066406 C 165.664062 165.757812 166.054688 168.464844 166.296875 171.242188 C 166.320312 171.496094 166.324219 171.78125 166.4375 171.996094 C 166.699219 172.480469 166.800781 173.285156 167.535156 173.148438 C 168.304688 173.003906 168.054688 172.34375 168.007812 171.742188 C 167.75 168.375 166.8125 165.011719 167.878906 161.621094 C 167.988281 161.269531 167.898438 160.851562 167.886719 160.460938 C 167.875 160.054688 167.769531 159.648438 167.300781 159.601562 C 166.796875 159.550781 166.6875 159.988281 166.609375 160.371094 C 166.347656 161.628906 166.101562 162.890625 165.824219 164.265625 Z M 183.511719 141.78125 C 182.601562 141.851562 180.03125 144.074219 180.15625 144.796875 C 180.558594 147.132812 181.0625 149.457031 181.5625 151.773438 C 181.679688 152.300781 182.019531 152.761719 182.660156 152.625 C 183.414062 152.464844 183.277344 151.796875 183.089844 151.378906 C 182.164062 149.351562 183.1875 148.339844 184.875 147.507812 C 185.445312 147.226562 186.378906 146.734375 185.914062 145.941406 C 185.492188 145.230469 184.652344 145.621094 184.015625 146.003906 C 183.851562 146.101562 183.6875 146.230469 183.503906 146.273438 C 183.027344 146.390625 182.523438 147.308594 182.082031 146.433594 C 181.796875 145.867188 181.535156 145.070312 182.257812 144.484375 C 182.914062 143.957031 183.609375 143.46875 184.039062 142.722656 C 184.429688 142.050781 184.167969 141.765625 183.511719 141.78125 Z M 198.328125 157.035156 C 198.015625 155.355469 197.839844 153.40625 197.257812 151.589844 C 196.675781 149.785156 196.640625 148.390625 198.4375 147.324219 C 198.855469 147.074219 199.285156 146.625 198.824219 146.035156 C 198.359375 145.441406 197.847656 145.820312 197.46875 146.105469 C 196.132812 147.121094 194.839844 148.183594 193.542969 149.246094 C 193.164062 149.5625 192.621094 149.875 193.042969 150.503906 C 193.386719 151.011719 193.894531 151.132812 194.390625 150.773438 C 195.605469 149.890625 195.632812 151.050781 195.753906 151.636719 C 196.148438 153.523438 196.371094 155.441406 196.773438 157.324219 C 196.894531 157.878906 196.988281 158.835938 197.804688 158.738281 C 198.566406 158.648438 198.207031 157.800781 198.328125 157.035156 Z M 163.691406 148.03125 C 164.363281 148.128906 164.914062 147.808594 165.277344 147.21875 C 165.632812 146.644531 166.351562 145.984375 165.75 145.328125 C 165.050781 144.5625 164.648438 145.566406 164.253906 145.914062 C 163.265625 146.777344 163.023438 146.046875 162.894531 145.3125 C 162.464844 142.835938 162.097656 140.355469 162.039062 137.832031 C 162.007812 136.550781 161.796875 135.265625 161.621094 133.988281 C 161.566406 133.597656 161.304688 133.277344 160.828125 133.316406 C 160.457031 133.34375 160.488281 133.679688 160.488281 133.90625 C 160.488281 138.230469 160.675781 142.542969 161.71875 146.765625 C 161.945312 147.683594 162.648438 148.136719 163.691406 148.03125 Z M 181.46875 199.023438 C 181.898438 198.761719 182.3125 198.578125 182.644531 198.296875 C 185.199219 196.113281 187.972656 194.234375 190.710938 192.296875 C 191.503906 191.734375 193.234375 191.230469 192.304688 190.003906 C 191.605469 189.082031 190.648438 190.609375 189.785156 190.980469 C 189.554688 191.082031 189.371094 191.285156 189.15625 191.433594 C 186.453125 193.3125 183.773438 195.226562 181.453125 197.585938 C 181.203125 197.84375 180.75 198.039062 180.886719 198.492188 C 180.945312 198.6875 181.230469 198.816406 181.46875 199.023438 Z M 58.75 39.570312 C 59.425781 42.140625 58.542969 43.550781 56.222656 44.679688 C 52.09375 46.683594 47.980469 48.738281 43.640625 50.199219 C 37.050781 52.421875 31.03125 55.828125 24.804688 58.804688 C 23.777344 59.296875 23.109375 60.121094 23.148438 61.203125 C 23.1875 62.304688 24.296875 62.515625 25.140625 62.765625 C 31.46875 64.648438 37.863281 66.148438 44.523438 66.210938 C 46.140625 66.226562 47.503906 65.496094 48.988281 64.960938 C 49.492188 66.660156 48.980469 68.234375 48.742188 69.785156 C 47.984375 74.742188 48.25 79.746094 48.148438 84.710938 C 47.789062 102.578125 46.359375 120.417969 46.851562 138.304688 C 47.179688 150.15625 45.910156 162 46.488281 173.847656 C 46.9375 183.003906 45.957031 192.074219 45.226562 201.164062 C 44.949219 204.640625 44.949219 208.140625 44.894531 211.632812 C 44.875 212.945312 44.699219 213.597656 43.058594 213.835938 C 39.605469 214.335938 36.21875 215.335938 32.699219 214.464844 C 27.691406 213.226562 22.816406 211.601562 18.363281 208.9375 C 16.714844 207.949219 16.617188 206.160156 16.566406 204.464844 C 16.414062 199.03125 16.628906 193.597656 16.683594 188.164062 C 16.742188 182.546875 16.316406 176.917969 16.511719 171.304688 C 16.992188 157.707031 16.738281 144.105469 16.882812 130.503906 C 16.953125 124.167969 16.320312 117.8125 16.589844 111.492188 C 17.164062 97.898438 17.300781 84.3125 17.273438 70.710938 C 17.265625 67.183594 17.617188 63.625 18.824219 60.210938 C 19.507812 58.269531 20.542969 57.011719 22.53125 56.132812 C 33.691406 51.207031 44.777344 46.121094 55.878906 41.074219 C 56.863281 40.625 57.792969 40.074219 58.75 39.570312 Z M 36.320312 180.007812 C 36.320312 179.1875 36.398438 178.464844 36.304688 177.765625 C 35.65625 172.9375 34.238281 168.417969 30.503906 165.019531 C 28.523438 163.21875 27.660156 163.414062 26.117188 165.554688 C 25.625 166.234375 25.082031 166.890625 24.664062 167.613281 C 20.628906 174.632812 19.621094 181.835938 23.246094 189.382812 C 23.996094 190.945312 26.261719 191.648438 26.121094 193.328125 C 25.984375 194.953125 24.910156 196.539062 24.484375 198.230469 C 24.070312 199.882812 24.53125 200.496094 26.269531 200.492188 C 29.742188 200.488281 32.964844 199.367188 36.1875 198.234375 C 37.191406 197.878906 37.347656 197.242188 36.808594 196.441406 C 36.195312 195.535156 35.601562 194.550781 34.785156 193.851562 C 33.074219 192.386719 33.105469 190.933594 33.890625 188.90625 C 35.007812 186.011719 36.992188 183.289062 36.320312 180.007812 Z M 37.113281 137.4375 C 37.226562 135.910156 36.863281 134.480469 36.210938 133.128906 C 35.304688 131.253906 33.921875 129.964844 31.734375 129.941406 C 29.511719 129.917969 28.230469 131.289062 27.300781 133.144531 C 25.859375 136.019531 25.726562 139.074219 26.683594 141.996094 C 27.667969 144.996094 28.238281 147.75 26.691406 150.757812 C 26.035156 152.039062 26.726562 153.109375 28.476562 153.066406 C 30.996094 153.003906 33.476562 152.46875 36.011719 152.582031 C 37.066406 152.628906 37.308594 151.820312 37.074219 150.964844 C 36.875 150.226562 36.546875 149.507812 36.167969 148.84375 C 35.492188 147.667969 35.367188 146.589844 35.878906 145.234375 C 36.820312 142.746094 36.808594 140.054688 37.113281 137.4375 Z M 32.796875 110.410156 C 32.796875 109.828125 32.867188 109.234375 32.785156 108.664062 C 32.347656 105.609375 32.132812 102.4375 29.449219 100.289062 C 26.597656 98.011719 24.351562 98.742188 23.488281 102.316406 C 22.402344 106.824219 23.898438 110.976562 26.257812 114.589844 C 27.722656 116.828125 27.890625 118.769531 27.246094 121.058594 C 27.097656 121.589844 26.894531 122.046875 27.382812 122.457031 C 27.914062 122.898438 28.4375 122.683594 29.007812 122.457031 C 30.742188 121.769531 32.484375 121.105469 34.242188 120.5 C 36.300781 119.792969 36.648438 119.078125 35.179688 117.585938 C 33.210938 115.585938 32.15625 113.421875 32.800781 110.601562 C 32.8125 110.542969 32.800781 110.472656 32.796875 110.410156 Z M 36.394531 80.230469 C 36.320312 79.558594 36.3125 78.644531 36.113281 77.773438 C 35.621094 75.621094 33.824219 73.910156 31.960938 73.742188 C 29.710938 73.542969 28.878906 75.148438 27.984375 76.789062 C 26.117188 80.226562 27.183594 83.652344 28.238281 86.902344 C 29.074219 89.464844 29.484375 91.675781 27.976562 94.09375 C 27.195312 95.34375 27.941406 96.058594 29.335938 95.925781 C 31.386719 95.726562 33.433594 95.496094 35.46875 95.203125 C 37.683594 94.878906 37.917969 94.570312 37.003906 92.679688 C 35.875 90.359375 35.175781 88.089844 35.863281 85.453125 C 36.277344 83.851562 36.21875 82.128906 36.394531 80.230469 Z M 47.355469 212.429688 C 53.246094 209.734375 58.640625 206.136719 64.386719 203.175781 C 65.03125 202.84375 65.054688 202.339844 65.015625 201.714844 C 64.648438 195.714844 64.1875 189.722656 63.980469 183.71875 C 63.367188 166.007812 63.242188 148.28125 62.089844 130.585938 C 61.589844 122.855469 61.351562 115.101562 60.902344 107.359375 C 60.328125 97.546875 60.347656 87.707031 59.6875 77.894531 C 59.308594 72.285156 59.097656 66.660156 58.824219 61.042969 C 58.785156 60.242188 58.65625 59.683594 57.722656 60.367188 C 55.933594 61.675781 53.894531 62.523438 51.933594 63.515625 C 51.414062 63.777344 51.140625 64.019531 51.101562 64.636719 C 50.882812 67.921875 50.40625 71.203125 50.402344 74.488281 C 50.390625 85.371094 49.886719 96.238281 49.578125 107.113281 C 49.386719 114.035156 48.878906 120.960938 48.929688 127.882812 C 48.976562 134.09375 49.339844 140.308594 49.136719 146.523438 C 48.890625 154.160156 48.597656 161.792969 48.738281 169.4375 C 48.914062 178.824219 48.832031 188.195312 47.707031 197.550781 C 47.113281 202.464844 47.078125 207.441406 46.789062 212.386719 C 47.109375 212.414062 47.257812 212.472656 47.355469 212.429688 Z M 182.746094 131.847656 C 182.824219 133.085938 183.21875 134.238281 183.9375 135.257812 C 184.507812 136.070312 185.015625 136.125 185.378906 135.078125 C 185.8125 133.84375 185.90625 132.550781 185.886719 131.269531 C 185.832031 128.355469 185.882812 125.402344 184.179688 122.753906 C 183.203125 125.738281 182.558594 128.734375 182.746094 131.847656 Z M 192.53125 121 C 192.453125 120.40625 192.289062 119.625 191.433594 119.667969 C 190.679688 119.707031 190.605469 120.472656 190.566406 120.972656 C 190.46875 122.238281 190.535156 123.519531 190.535156 125.125 C 192.066406 123.921875 192.746094 122.636719 192.53125 121 Z M 168.75 136.722656 C 168.761719 137.847656 169.09375 138.332031 170.363281 137.78125 C 171.28125 137.382812 171.511719 137.097656 171.050781 136.136719 C 170.441406 134.863281 169.960938 133.53125 168.746094 132.210938 C 168.746094 133.914062 168.730469 135.320312 168.75 136.722656 Z M 191.597656 153.359375 C 191.53125 152.957031 191.199219 152.613281 190.769531 152.792969 C 189.550781 153.296875 189.605469 154.339844 189.78125 155.589844 C 190.9375 155.164062 191.820312 154.679688 191.597656 153.359375 Z M 173.300781 163.335938 C 173.214844 162.597656 172.878906 161.855469 172.039062 161.878906 C 171.277344 161.898438 171.097656 162.660156 171.03125 163.304688 C 170.964844 163.945312 170.960938 164.59375 170.992188 165.234375 C 171.054688 166.46875 170.714844 168.449219 172.140625 168.464844 C 173.570312 168.476562 173.289062 166.515625 173.316406 165.265625 C 173.316406 164.625 173.375 163.972656 173.300781 163.335938 Z M 177.398438 147.519531 C 176.011719 147.546875 176.449219 149.597656 176.472656 150.828125 C 176.488281 151.882812 176.945312 153.242188 177.9375 153.167969 C 178.808594 153.097656 178.296875 151.621094 178.507812 150.804688 C 178.238281 149.59375 178.804688 147.492188 177.398438 147.519531 Z M 98.726562 86.132812 C 96.808594 89.199219 96.59375 92.542969 97.40625 96.011719 C 97.808594 97.738281 98.882812 98.8125 100.441406 99.53125 C 104.449219 101.375 109.402344 99.035156 110.574219 94.699219 C 111.085938 92.808594 111.195312 90.875 110.992188 88.933594 C 110.5625 84.789062 108.914062 83.328125 104.515625 83.382812 C 102.023438 82.683594 100.097656 83.941406 98.726562 86.132812 Z M 98.726562 86.132812 "/><path style=" stroke:none;fill-rule:nonzero;fill:#e3d8d6;fill-opacity:1;" d="M 168.726562 46.921875 C 165.015625 48.671875 161.3125 50.4375 157.59375 52.164062 C 148.285156 56.492188 138.957031 60.777344 129.65625 65.125 C 125.511719 67.058594 121.425781 69.117188 117.089844 70.621094 C 116.289062 70.898438 115.476562 71.097656 114.628906 71.0625 C 108.425781 70.808594 102.269531 70.160156 96.15625 69.066406 C 95.757812 68.996094 95.425781 68.859375 95.070312 68.394531 C 97.238281 66.894531 99.429688 65.453125 101.859375 64.429688 C 112.667969 59.882812 123.675781 55.839844 134.574219 51.523438 C 140.796875 49.0625 147.148438 46.835938 153.078125 43.660156 C 153.636719 43.363281 154.058594 43.304688 154.421875 43.820312 C 155.007812 44.648438 154.074219 44.660156 153.75 44.816406 C 147.054688 48.117188 140.460938 51.589844 133.320312 53.972656 C 127.59375 55.882812 122.269531 58.890625 116.550781 60.898438 C 113.082031 62.113281 109.625 63.363281 106.425781 65.207031 C 105.617188 65.671875 104.191406 66.355469 104.652344 67.152344 C 105.316406 68.289062 106.328125 66.996094 107.074219 66.582031 C 109.902344 65.007812 112.953125 63.972656 115.933594 62.757812 C 125.949219 58.683594 135.988281 54.65625 145.941406 50.4375 C 149.316406 49.007812 152.488281 47.089844 155.722656 45.34375 C 157.203125 44.546875 158.210938 46.046875 159.511719 45.875 C 159.65625 46.683594 158.988281 46.640625 158.675781 46.796875 C 147.078125 52.570312 135.230469 57.773438 123.140625 62.4375 C 119.839844 63.707031 116.5625 65.109375 113.605469 67.113281 C 113.167969 67.410156 112.425781 67.769531 112.84375 68.449219 C 113.128906 68.902344 113.796875 68.792969 114.273438 68.515625 C 121.878906 64.046875 130.472656 61.832031 138.347656 57.957031 C 146.148438 54.121094 154.417969 51.246094 161.839844 46.609375 C 162.972656 45.898438 164.347656 46.703125 165.621094 46.554688 C 166.609375 46.4375 167.625 46.53125 168.628906 46.53125 C 168.660156 46.660156 168.695312 46.792969 168.726562 46.921875 Z M 135.167969 7.476562 C 134.621094 7.28125 134.214844 7.289062 133.71875 7.589844 C 127.699219 11.261719 121.121094 13.859375 114.925781 17.15625 C 104.433594 22.742188 93.542969 27.457031 82.894531 32.695312 C 82.300781 32.988281 81.730469 33.578125 80.894531 33.214844 C 80.972656 33.03125 80.992188 32.785156 81.117188 32.714844 C 97.691406 22.960938 115.304688 15.21875 132.746094 6.199219 C 131.488281 6.144531 131.25 4.546875 129.980469 5.40625 C 126.171875 7.988281 121.882812 9.640625 117.738281 11.566406 C 112.769531 13.875 107.691406 15.953125 102.777344 18.363281 C 96.230469 21.566406 89.773438 24.953125 83.328125 28.347656 C 80.578125 29.792969 77.761719 31.035156 74.824219 32.039062 C 71.671875 33.113281 68.5625 34.308594 65.742188 36.363281 C 67.183594 37.535156 68.828125 37.914062 70.433594 38.199219 C 73.546875 38.753906 76.53125 39.734375 79.773438 37.855469 C 89.199219 32.394531 99.246094 28.128906 109.082031 23.46875 C 115.957031 20.210938 122.539062 16.355469 129.605469 13.484375 C 133.125 12.058594 136.558594 10.429688 140.148438 8.121094 C 138.179688 8.167969 136.636719 8 135.167969 7.476562 Z M 173.683594 89.800781 C 172.730469 90.648438 171.546875 91.25 170.4375 91.910156 C 163.105469 96.265625 155.472656 100.070312 147.765625 103.695312 C 141.980469 106.414062 136.242188 109.214844 130.628906 112.265625 C 129.933594 112.644531 129.027344 112.796875 128.695312 113.6875 C 129.183594 113.988281 129.667969 114.117188 130.203125 114.117188 C 135.261719 114.121094 140.324219 114.234375 145.378906 114.078125 C 146.996094 114.03125 148.707031 114.027344 150.273438 113.226562 C 164.429688 106.015625 177.949219 97.667969 191.820312 89.945312 C 192.648438 89.484375 193.605469 89.136719 194.433594 87.949219 C 191.925781 88.8125 189.578125 88.347656 187.480469 89.367188 C 180.917969 92.5625 175.152344 97.164062 168.433594 100.074219 C 167.785156 100.355469 167.191406 100.761719 166.589844 101.144531 C 161.308594 104.492188 155.308594 106.644531 150.453125 110.714844 C 150.355469 110.796875 150.230469 110.847656 150.117188 110.90625 C 149.746094 111.097656 149.308594 111.179688 149.03125 110.875 C 148.660156 110.46875 149.113281 110.171875 149.363281 109.925781 C 149.820312 109.46875 150.320312 109.058594 150.820312 108.644531 C 154.632812 105.476562 159.285156 103.714844 163.449219 101.15625 C 170.136719 97.046875 177.457031 94.058594 183.519531 89.398438 C 181.234375 89.164062 181.3125 89.316406 179.378906 90.304688 C 176.367188 91.847656 173.824219 94.109375 170.851562 95.664062 C 161.417969 100.605469 151.796875 105.195312 142.710938 110.777344 C 141.792969 111.34375 140.789062 111.878906 139.464844 111.695312 C 140.039062 110.824219 140.726562 110.351562 141.421875 109.902344 C 145.980469 106.964844 150.636719 104.179688 155.472656 101.714844 C 163.277344 97.734375 171.203125 93.972656 178.261719 89.039062 C 176.671875 88.070312 175.167969 88.480469 173.683594 89.800781 Z M 44.617188 60.972656 C 48.183594 57.949219 52.335938 56.003906 56.402344 53.917969 C 58.773438 52.699219 58.945312 52.472656 58.167969 49.707031 C 52.421875 53.335938 46.777344 57.144531 39.566406 58.757812 C 40.1875 57.339844 41.050781 56.855469 41.878906 56.449219 C 47.164062 53.855469 52.253906 50.925781 57.292969 47.890625 C 58.40625 47.21875 58.730469 46.625 58.324219 45.402344 C 47.914062 51.664062 35.839844 54.242188 25.390625 60.828125 C 30.503906 62.097656 35.300781 64.136719 40.539062 63.976562 C 42.402344 63.917969 44.285156 64.847656 46.097656 64.027344 C 49.796875 62.355469 53.503906 60.699219 57.007812 58.601562 C 58.535156 57.683594 58.789062 56.652344 58.296875 54.988281 C 53.808594 57.246094 49.503906 59.804688 44.617188 60.972656 Z M 159.550781 180.464844 C 158.953125 182.980469 159.167969 185.417969 160.976562 187.359375 C 162.714844 189.226562 164.964844 190.222656 167.597656 189.894531 C 171.269531 189.4375 173.261719 186.972656 174.410156 183.773438 C 174.882812 182.449219 175.300781 182.355469 176.652344 182.636719 C 182.617188 183.875 185.957031 182.519531 186.832031 177.269531 C 187.15625 175.316406 187.816406 175.128906 189.492188 175.164062 C 194.414062 175.277344 197.753906 172.074219 197.773438 167.308594 C 197.777344 166.417969 198.136719 166.429688 198.757812 166.320312 C 201.910156 165.765625 203.046875 164.648438 203.636719 161.65625 C 203.757812 161.042969 203.785156 160.386719 203.140625 160.144531 C 202.503906 159.90625 202.289062 160.535156 202.070312 161 C 201.90625 161.347656 201.730469 161.699219 201.621094 162.066406 C 201.011719 164.101562 199.464844 164.757812 197.578125 164.539062 C 195.851562 164.335938 195.515625 164.960938 195.855469 166.492188 C 196.433594 169.078125 195.464844 171.035156 193.226562 172.390625 C 191.3125 173.546875 189.285156 173.472656 187.234375 172.839844 C 184.96875 172.140625 184.789062 172.289062 185.140625 174.632812 C 185.550781 177.390625 184.160156 180.527344 182.050781 180.871094 C 179.714844 181.257812 177.273438 181.503906 175.257812 179.617188 C 174.25 178.675781 173.511719 178.941406 173.273438 180.347656 C 173 181.941406 172.65625 183.503906 171.8125 184.925781 C 170.242188 187.566406 167.828125 188.679688 165.125 187.957031 C 162.085938 187.144531 160.535156 185.09375 160.492188 181.875 C 160.484375 181.253906 160.679688 180.589844 160.101562 179.769531 C 159.839844 180.089844 159.601562 180.253906 159.550781 180.464844 Z M 156.539062 122.808594 C 158.003906 120.121094 160.78125 119.546875 162.761719 121.503906 C 163.375 122.113281 163.46875 123.53125 164.53125 123.304688 C 165.785156 123.039062 165.199219 121.644531 165.390625 120.789062 C 166.578125 115.445312 169.664062 114 174.285156 116.734375 C 175.15625 117.25 175.882812 117.339844 176.117188 116.0625 C 176.207031 115.554688 176.324219 115.050781 176.46875 114.554688 C 177.621094 110.539062 181.910156 108.839844 185.140625 111.109375 C 188.335938 113.355469 188.335938 113.355469 188.941406 109.4375 C 189.449219 106.140625 192.148438 104.15625 194.554688 105.375 C 195.226562 105.714844 195.75 106.351562 196.351562 106.832031 C 196.855469 107.234375 197.40625 107.410156 197.878906 106.8125 C 198.296875 106.28125 197.941406 105.882812 197.570312 105.472656 C 194.789062 102.398438 190.882812 102.6875 188.511719 106.050781 C 187.621094 107.3125 187.503906 108.804688 186.953125 110.164062 C 181.515625 107.132812 177.59375 108.285156 174.972656 113.753906 C 174.527344 114.683594 174.253906 114.480469 173.574219 114.199219 C 170.324219 112.855469 167.011719 113.9375 165.132812 116.878906 C 164.507812 117.863281 164.140625 118.953125 163.789062 120.050781 C 159.480469 118.503906 157.902344 118.734375 156.03125 121.164062 C 154.601562 123.027344 154.359375 125.394531 155.675781 127.246094 C 155.855469 125.511719 155.839844 124.097656 156.539062 122.808594 Z M 111.222656 198.234375 C 112.070312 198.132812 113.140625 198.054688 112.953125 196.917969 C 112.75 195.671875 111.628906 196.226562 110.886719 196.332031 C 106.832031 196.914062 102.796875 196.976562 98.757812 196.238281 C 98.199219 196.132812 97.371094 195.230469 97.050781 196.496094 C 96.796875 197.511719 97.601562 197.871094 98.351562 198.097656 C 100.539062 198.757812 102.832031 198.585938 105.214844 198.964844 C 107.128906 198.734375 109.175781 198.480469 111.222656 198.234375 Z M 100.195312 203.941406 C 99.578125 203.992188 98.742188 203.816406 98.679688 204.71875 C 98.613281 205.636719 99.496094 205.601562 100.082031 205.695312 C 101.609375 205.949219 103.144531 206.132812 104.679688 206.316406 C 105.945312 206.464844 107.199219 206.914062 108.503906 206.410156 C 109 206.214844 109.554688 206.15625 109.46875 205.453125 C 109.398438 204.894531 108.957031 204.804688 108.46875 204.757812 C 105.90625 204.5 103.339844 204.21875 100.699219 203.941406 C 100.582031 203.941406 100.386719 203.925781 100.195312 203.941406 Z M 73.714844 59.40625 C 72.234375 59.191406 70.488281 60.644531 69.847656 62.648438 C 69.671875 63.195312 69.53125 63.757812 69.417969 64.324219 C 69.320312 64.824219 69.339844 65.476562 68.667969 65.472656 C 68.070312 65.472656 67.898438 64.839844 67.726562 64.367188 C 67.308594 63.210938 67.03125 62.019531 67.066406 60.773438 C 67.082031 60.171875 67.003906 59.492188 66.277344 59.421875 C 65.417969 59.34375 65.183594 60.136719 65.195312 60.742188 C 65.242188 62.484375 65.429688 64.234375 66.367188 65.769531 C 67.007812 66.808594 67.957031 67.550781 69.242188 67.335938 C 70.46875 67.132812 70.714844 65.992188 70.941406 64.988281 C 71.167969 63.980469 71.335938 62.953125 71.925781 62.085938 C 72.253906 61.609375 72.679688 61.191406 73.359375 61.238281 C 74.214844 61.300781 74.082031 62.039062 74.234375 62.542969 C 74.5625 63.628906 74.417969 64.703125 74.113281 65.785156 C 74.007812 66.164062 73.75 66.777344 74.25 67.019531 C 74.792969 67.28125 75.21875 66.769531 75.550781 66.402344 C 76.242188 65.628906 76.113281 64.585938 76.332031 63.796875 C 76.355469 61.402344 75.261719 59.628906 73.714844 59.40625 Z M 73.308594 185.683594 C 74.652344 184.800781 74.65625 184.082031 73.296875 183.273438 C 72.6875 182.910156 72.039062 182.617188 71.4375 182.242188 C 70.90625 181.910156 70.597656 181.367188 70.734375 180.757812 C 70.886719 180.074219 71.558594 180.261719 72.035156 180.207031 C 73.261719 180.074219 74.492188 179.988281 75.71875 179.875 C 76.28125 179.820312 76.769531 179.613281 76.75 178.960938 C 76.730469 178.226562 76.109375 178.242188 75.605469 178.238281 C 74.695312 178.238281 73.785156 178.246094 72.882812 178.332031 C 71.449219 178.472656 69.71875 178.1875 69.152344 180.046875 C 68.566406 181.964844 69.523438 183.269531 71.167969 184.183594 C 71.308594 184.261719 71.378906 184.460938 71.527344 184.667969 C 71.007812 185.019531 70.527344 185.328125 70.066406 185.664062 C 69.359375 186.179688 68.816406 186.777344 68.960938 187.761719 C 69.101562 188.738281 69.921875 188.9375 70.628906 189.15625 C 72.105469 189.613281 73.605469 190 75.113281 190.332031 C 75.542969 190.425781 76.234375 190.652344 76.378906 189.878906 C 76.503906 189.199219 75.914062 189.003906 75.429688 188.867188 C 73.886719 188.421875 72.328125 188.027344 70.617188 187.566406 C 71.386719 186.46875 72.457031 186.242188 73.308594 185.683594 Z M 67.65625 76.480469 C 66.597656 77.503906 66.886719 79.015625 68.085938 79.160156 C 69.75 79.359375 71.425781 79.457031 73.097656 79.566406 C 73.667969 79.601562 74.34375 79.660156 74.492188 78.875 C 74.664062 77.945312 73.835938 77.808594 73.273438 77.691406 C 72.121094 77.449219 70.890625 77.789062 69.457031 77.316406 C 70.371094 76.652344 71.085938 76.128906 71.8125 75.617188 C 72.617188 75.054688 73.316406 74.386719 73.863281 73.574219 C 74.535156 72.578125 74.558594 71.585938 73.164062 71.449219 C 71.433594 71.28125 69.671875 71.40625 67.925781 71.476562 C 67.386719 71.496094 66.867188 71.9375 66.859375 72.449219 C 66.84375 73.15625 67.503906 73.332031 68.109375 73.347656 C 69.113281 73.375 70.117188 73.355469 71.5 73.355469 C 70.003906 74.554688 68.746094 75.429688 67.65625 76.480469 Z M 74.445312 84.675781 C 74.101562 83.054688 72.578125 81.890625 70.789062 81.808594 C 69.046875 81.726562 67.785156 82.363281 67.222656 84.105469 C 66.460938 86.457031 67.136719 88.660156 69.097656 90.210938 C 71.675781 92.253906 73.398438 91.695312 74.257812 88.5 C 74.441406 87.824219 74.503906 87.117188 74.601562 86.550781 C 74.546875 85.828125 74.5625 85.238281 74.445312 84.675781 Z M 71.464844 89.589844 C 70.523438 89.828125 68.480469 87.640625 68.613281 86.589844 C 68.769531 85.3125 68.757812 83.742188 70.597656 83.542969 C 71.933594 83.402344 72.894531 84.582031 72.90625 86.5 C 72.503906 87.410156 73.203125 89.152344 71.464844 89.589844 Z M 72.480469 121.832031 C 72.011719 121.5 71.441406 121.195312 71.171875 120.730469 C 70.714844 119.9375 71.984375 115.582031 72.6875 114.925781 C 73.113281 114.527344 73.960938 114.210938 73.476562 113.414062 C 73.027344 112.675781 72.367188 113.042969 71.773438 113.339844 C 69.902344 114.285156 68.417969 115.695312 67.0625 117.253906 C 66.453125 117.957031 66.328125 118.816406 66.992188 119.542969 C 68.472656 121.152344 70.175781 122.488281 72.171875 123.410156 C 72.632812 123.625 73.203125 123.667969 73.433594 122.96875 C 73.34375 122.398438 72.90625 122.132812 72.480469 121.832031 Z M 73.820312 163.738281 C 72.472656 163.28125 71.230469 163.554688 70.566406 164.652344 C 69.570312 166.296875 69.003906 168.128906 69.753906 170.140625 C 70.410156 171.902344 71.886719 172.652344 73.472656 172.777344 C 75.117188 172.90625 75.558594 171.3125 75.96875 170.023438 C 76.21875 169.234375 76.308594 168.398438 76.441406 167.734375 C 76.371094 165.742188 75.699219 164.378906 73.820312 163.738281 Z M 73.203125 170.867188 C 72.257812 171.152344 70.988281 169.390625 71.082031 167.898438 C 71.15625 166.710938 71.277344 165.238281 72.890625 165.210938 C 74.164062 165.191406 74.683594 166.273438 74.820312 167.609375 C 74.183594 168.574219 74.851562 170.367188 73.203125 170.867188 Z M 69.023438 159.550781 C 69.046875 160.328125 69.355469 161.066406 70.238281 160.960938 C 71.035156 160.867188 70.746094 160.15625 70.734375 159.566406 C 70.695312 157.839844 70.792969 156.152344 73.300781 156.425781 C 73.722656 156.472656 74.183594 156.261719 74.613281 156.128906 C 75.175781 155.953125 75.832031 155.761719 75.652344 154.996094 C 75.503906 154.371094 74.902344 154.386719 74.375 154.421875 C 73.289062 154.496094 71.9375 155.007812 71.191406 154.546875 C 70.230469 153.949219 70.722656 152.402344 70.519531 151.273438 C 70.40625 150.660156 70.289062 149.871094 69.40625 149.957031 C 68.308594 150.0625 68.546875 151.003906 68.675781 151.621094 C 69.007812 153.222656 69.035156 154.828125 69.011719 156.445312 C 69.015625 157.480469 68.992188 158.519531 69.023438 159.550781 Z M 70.066406 136.210938 C 71.878906 135.148438 73.296875 133.628906 74.660156 132.074219 C 75.144531 131.519531 74.957031 130.816406 74.289062 130.414062 C 72.449219 129.300781 70.871094 127.867188 69.269531 126.457031 C 68.835938 126.074219 68.25 125.742188 67.722656 126.320312 C 67.179688 126.914062 67.621094 127.4375 68.042969 127.824219 C 69.132812 128.835938 70.183594 129.933594 71.417969 130.734375 C 72.679688 131.546875 72.398438 132.109375 71.480469 132.851562 C 70.628906 133.542969 69.785156 134.25 68.945312 134.953125 C 68.632812 135.214844 68.433594 135.542969 68.554688 135.96875 C 68.664062 136.347656 68.984375 136.402344 69.410156 136.410156 C 69.578125 136.363281 69.851562 136.335938 70.066406 136.210938 Z M 69.183594 102.253906 C 69.101562 101.742188 68.835938 101.261719 68.148438 101.351562 C 67.566406 101.429688 67.453125 101.84375 67.449219 102.332031 C 67.417969 104.972656 67.648438 107.621094 67.242188 110.253906 C 67.183594 110.648438 67.402344 111.015625 67.851562 111.113281 C 68.320312 111.21875 68.570312 110.957031 68.6875 110.535156 C 68.804688 110.105469 69.03125 109.660156 68.996094 109.238281 C 68.875 107.746094 69.691406 107.199219 70.996094 106.945312 C 71.933594 106.765625 72.851562 106.453125 73.757812 106.144531 C 74.039062 106.046875 74.394531 105.859375 74.355469 105.46875 C 74.308594 105.011719 73.949219 104.886719 73.535156 104.835938 C 72.148438 104.652344 70.890625 105.277344 69.527344 105.523438 C 69.414062 104.410156 69.347656 103.324219 69.183594 102.253906 Z M 71.566406 141.40625 C 70.605469 141.40625 69.636719 141.359375 68.679688 141.429688 C 68.152344 141.464844 67.699219 141.808594 67.699219 142.414062 C 67.703125 142.84375 68.101562 143.238281 68.433594 143.171875 C 70.40625 142.777344 72.40625 143.175781 74.375 142.921875 C 74.867188 142.855469 75.21875 142.582031 75.210938 142.042969 C 75.199219 141.4375 74.730469 141.34375 74.265625 141.335938 C 73.367188 141.3125 72.46875 141.328125 71.566406 141.328125 C 71.566406 141.355469 71.566406 141.382812 71.566406 141.40625 Z M 68.320312 95.496094 C 67.847656 95.691406 67.535156 96.023438 67.652344 96.507812 C 67.78125 97.03125 68.242188 97.144531 68.738281 96.976562 C 69.675781 96.652344 70.664062 96.832031 71.609375 96.683594 C 72.507812 96.542969 74.140625 97.238281 74.03125 95.699219 C 73.953125 94.570312 72.425781 95.289062 71.78125 95.125 C 70.460938 95.097656 69.367188 95.0625 68.320312 95.496094 Z M 33.480469 195.351562 C 31.148438 193.238281 30.441406 190.992188 32.007812 187.949219 C 33.019531 185.988281 34.144531 183.925781 34.339844 181.644531 C 34.738281 177.0625 33.542969 172.824219 31.222656 168.890625 C 30.699219 168.003906 30.113281 167.148438 29.226562 166.546875 C 28.699219 166.191406 28.363281 165.980469 27.804688 166.628906 C 22.285156 173.042969 20.875 185.898438 27.265625 191.28125 C 28.148438 192.027344 28.339844 192.929688 27.789062 194.046875 C 27.109375 195.421875 26.578125 196.871094 26.289062 198.484375 C 29.21875 198.664062 31.894531 197.9375 34.570312 196.730469 C 34.195312 196.246094 33.898438 195.730469 33.480469 195.351562 Z M 33.964844 151.078125 C 35.09375 151.046875 35.136719 150.636719 34.675781 149.808594 C 33.957031 148.507812 33.160156 147.222656 33.804688 145.625 C 34.710938 143.375 34.785156 140.964844 35.089844 138.605469 C 35.320312 136.800781 35.210938 135.003906 34.125 133.390625 C 32.691406 131.257812 30.703125 131.238281 29.359375 133.414062 C 27.835938 135.886719 27.710938 138.609375 28.410156 141.28125 C 29.292969 144.664062 30.375 147.960938 27.738281 151.523438 C 30.246094 151.335938 32.105469 151.132812 33.964844 151.078125 Z M 29.3125 120.386719 C 30.871094 119.917969 32.429688 119.449219 34.617188 118.792969 C 30.214844 116.316406 30.738281 112.535156 30.851562 108.882812 C 30.859375 108.625 30.867188 108.355469 30.820312 108.105469 C 30.355469 105.78125 30.222656 103.3125 28.183594 101.640625 C 26.648438 100.378906 25.839844 100.601562 25.3125 102.5 C 24.515625 105.378906 25.273438 108.101562 26.253906 110.804688 C 27.402344 113.972656 30.140625 116.636719 29.332031 120.429688 Z M 34.363281 93.882812 C 35.304688 93.808594 35.621094 93.453125 35.101562 92.546875 C 33.910156 90.460938 33.601562 88.273438 33.917969 85.855469 C 34.242188 83.371094 34.6875 80.859375 34.355469 78.320312 C 34.164062 76.871094 33.308594 75.949219 31.9375 75.632812 C 30.566406 75.316406 30.230469 76.523438 29.75 77.398438 C 28.019531 80.5625 29.066406 83.75 29.976562 86.792969 C 30.738281 89.347656 31.394531 91.714844 29.425781 94.324219 C 31.421875 94.144531 32.890625 94.003906 34.363281 93.882812 Z M 34.363281 93.882812 "/></g></svg>